<?xml version="1.0" encoding="iso-8859-1"?>
<svg height="800px" width="800px" version="1.1" id="Layer_1" xmlns="http://www.w3.org/2000/svg" xmlns:xlink="http://www.w3.org/1999/xlink" 
	 viewBox="0 0 512 512" xml:space="preserve">
<polygon style="fill:#DCDCDC;" points="503.83,472.239 503.83,368.75 471.149,368.75 438.468,420.495 471.149,472.239 "/>
<polygon style="fill:#EEEEEE;" points="471.149,472.239 471.149,368.75 296.851,368.75 256,270.707 215.149,368.75 8.17,368.75 
	8.17,472.239 "/>
<g>
	<circle style="fill:#969696;" cx="79.883" cy="420.494" r="16.34"/>
	<circle style="fill:#969696;" cx="167.947" cy="420.494" r="16.34"/>
	<circle style="fill:#969696;" cx="256" cy="420.494" r="16.34"/>
	<circle style="fill:#969696;" cx="344.053" cy="420.494" r="16.34"/>
	<circle style="fill:#969696;" cx="432.117" cy="420.494" r="16.34"/>
</g>
<polygon style="fill:#81E3E2;" points="296.845,182.466 296.845,238.024 329.532,238.024 329.532,216.237 362.213,216.237 
	362.213,238.024 394.898,238.024 394.898,216.236 438.462,216.236 438.462,160.679 378.547,160.679 "/>
<g>
	<polygon style="fill:#42C8C6;" points="296.851,149.785 296.851,182.466 427.568,182.466 427.579,238.024 460.249,238.024 
		460.255,149.785 	"/>
	<path style="fill:#42C8C6;" d="M482.043,117.107h-32.681v43.574h32.681c12.037,0,21.787-9.761,21.787-21.787
		C503.83,126.857,494.08,117.107,482.043,117.107z"/>
</g>
<path style="fill:#81E3E2;" d="M449.362,117.107H204.027c-9.924-44.272-49.457-77.345-96.724-77.345
	c-54.751,0-99.132,44.381-99.132,99.132s44.381,99.132,99.132,99.132c47.267,0,86.8-33.084,96.724-77.345h245.335
	c12.037,0,21.787-9.761,21.787-21.787C471.149,126.857,461.399,117.107,449.362,117.107z M107.302,194.452
	c-30.633,0-55.557-24.925-55.557-55.557s24.925-55.557,55.557-55.557s55.557,24.925,55.557,55.557S137.935,194.452,107.302,194.452z
	"/>
<path d="M79.886,395.984c-13.516,0-24.511,10.996-24.511,24.511c0,13.515,10.995,24.511,24.511,24.511s24.511-10.996,24.511-24.511
	C104.397,406.98,93.402,395.984,79.886,395.984z M79.886,428.665c-4.506,0-8.17-3.665-8.17-8.17s3.665-8.17,8.17-8.17
	c4.506,0,8.17,3.665,8.17,8.17S84.392,428.665,79.886,428.665z"/>
<path d="M167.944,395.984c-13.516,0-24.511,10.996-24.511,24.511c0,13.515,10.995,24.511,24.511,24.511
	c13.516,0,24.511-10.996,24.511-24.511C192.454,406.98,181.458,395.984,167.944,395.984z M167.944,428.665
	c-4.506,0-8.17-3.665-8.17-8.17s3.665-8.17,8.17-8.17s8.17,3.665,8.17,8.17S172.448,428.665,167.944,428.665z"/>
<path d="M256,395.984c-13.516,0-24.511,10.996-24.511,24.511c0,13.515,10.995,24.511,24.511,24.511s24.511-10.996,24.511-24.511
	C280.511,406.98,269.516,395.984,256,395.984z M256,428.665c-4.506,0-8.17-3.665-8.17-8.17s3.665-8.17,8.17-8.17
	s8.17,3.665,8.17,8.17S260.506,428.665,256,428.665z"/>
<path d="M344.056,445.005c13.516,0,24.511-10.996,24.511-24.511c0-13.515-10.995-24.511-24.511-24.511s-24.511,10.996-24.511,24.511
	C319.546,434.009,330.542,445.005,344.056,445.005z M344.056,412.324c4.506,0,8.17,3.665,8.17,8.17s-3.665,8.17-8.17,8.17
	s-8.17-3.665-8.17-8.17S339.552,412.324,344.056,412.324z"/>
<path d="M432.114,445.005c13.516,0,24.511-10.996,24.511-24.511c0-13.515-10.995-24.511-24.511-24.511
	c-13.516,0-24.511,10.996-24.511,24.511C407.603,434.009,418.598,445.005,432.114,445.005z M432.114,412.324
	c4.506,0,8.17,3.665,8.17,8.17s-3.665,8.17-8.17,8.17s-8.17-3.665-8.17-8.17S427.608,412.324,432.114,412.324z"/>
<path d="M503.83,360.58H302.298l-38.756-93.015c-1.269-3.045-4.243-5.027-7.542-5.027c-3.299,0-6.273,1.983-7.542,5.027
	l-38.756,93.015H8.17c-4.512,0-8.17,3.657-8.17,8.17v103.489c0,4.513,3.658,8.17,8.17,8.17h495.66c4.512,0,8.17-3.657,8.17-8.17
	V368.75C512,364.237,508.342,360.58,503.83,360.58z M495.66,464.069H16.34V376.92h198.809c3.299,0,6.273-1.983,7.542-5.027
	L256,291.95l33.309,79.943c1.269,3.045,4.243,5.027,7.542,5.027H495.66V464.069z"/>
<path d="M107.302,202.62c35.14,0,63.728-28.588,63.728-63.728s-28.588-63.728-63.728-63.728s-63.728,28.588-63.728,63.728
	S72.163,202.62,107.302,202.62z M107.302,91.505c26.129,0,47.387,21.258,47.387,47.387s-21.258,47.387-47.387,47.387
	s-47.387-21.258-47.387-47.387S81.173,91.505,107.302,91.505z"/>
<path d="M107.302,246.195c24.518,0,48.493-8.486,67.507-23.895c17.015-13.789,29.472-32.584,35.546-53.45h78.326v69.174
	c0,4.513,3.658,8.17,8.17,8.17h32.681c4.512,0,8.17-3.657,8.17-8.17v-13.617h16.34v13.617c0,4.513,3.658,8.17,8.17,8.17h32.681
	c4.512,0,8.17-3.657,8.17-8.17v-13.617h16.34v13.617c0,4.513,3.658,8.17,8.17,8.17h32.681c4.512,0,8.17-3.657,8.17-8.17V168.85
	h13.617c16.519,0,29.957-13.439,29.957-29.957s-13.438-29.957-29.957-29.957H210.355c-6.074-20.866-18.531-39.66-35.546-53.45
	C155.795,40.077,131.82,31.59,107.302,31.59C48.136,31.59,0,79.726,0,138.893S48.136,246.195,107.302,246.195z M107.302,47.931
	c42.204,0,79.53,29.844,88.751,70.963c0.837,3.731,4.149,6.381,7.972,6.381h278.017c7.509,0,13.617,6.108,13.617,13.617
	s-6.108,13.617-13.617,13.617H329.532c-4.512,0-8.17,3.657-8.17,8.17s3.658,8.17,8.17,8.17h122.553v61.004h-16.34v-13.617
	c0-4.513-3.658-8.17-8.17-8.17h-32.681c-4.512,0-8.17,3.657-8.17,8.17v13.617h-16.34v-13.617c0-4.513-3.658-8.17-8.17-8.17h-32.681
	c-4.512,0-8.17,3.657-8.17,8.17v13.617h-16.34V160.68c0-4.513-3.658-8.17-8.17-8.17h-92.824c-3.824,0-7.135,2.652-7.972,6.381
	c-9.221,41.119-46.547,70.963-88.751,70.963c-50.156,0-90.962-40.805-90.962-90.962S57.146,47.931,107.302,47.931z"/>
</svg>